<svg width="118" height="58" viewBox="0 0 118 58" fill="none" xmlns="http://www.w3.org/2000/svg">
<g filter="url(#filter0_d_135_961)">
<mask id="path-1-outside-1_135_961" maskUnits="userSpaceOnUse" x="3.7749" y="0.0484314" width="110" height="50" fill="black">
<rect fill="white" x="3.7749" y="0.0484314" width="110" height="50"/>
<path d="M23.7429 48.1764V38.6404H5.0549V31.0244L26.4949 3.50443H32.3189V30.9604H37.9509V38.6404H32.3189V48.1764H23.7429ZM13.6309 30.9604H24.7029V16.4964L13.6309 30.9604ZM42.7694 40.0484C42.7694 38.1284 42.9187 36.4004 43.2174 34.8644C43.5161 33.3284 44.0281 31.8991 44.7534 30.5764C45.5214 29.2538 46.5454 28.0164 47.8254 26.8644C49.1481 25.6698 50.8121 24.5178 52.8174 23.4084C54.5667 22.4698 56.1027 21.6591 57.4254 20.9764C58.7481 20.2511 59.8574 19.5898 60.7534 18.9924C61.6921 18.3951 62.3961 17.7978 62.8654 17.2004C63.3347 16.5604 63.5694 15.8351 63.5694 15.0244C63.5694 14.1711 63.3347 13.4031 62.8654 12.7204C62.3961 11.9951 61.7347 11.4191 60.8814 10.9924C60.0281 10.5658 58.9614 10.3524 57.6814 10.3524C56.6574 10.3524 55.6974 10.4804 54.8014 10.7364C53.9481 10.9924 53.1374 11.3551 52.3694 11.8244C51.6441 12.2938 50.9614 12.8271 50.3214 13.4244C49.6814 13.9791 49.1054 14.5764 48.5934 15.2164L43.1534 8.94443C43.7507 8.3471 44.5401 7.7071 45.5214 7.02443C46.5454 6.2991 47.7401 5.63776 49.1054 5.04043C50.5134 4.40043 52.0494 3.88843 53.7134 3.50443C55.4201 3.07776 57.2334 2.86443 59.1534 2.86443C62.0547 2.86443 64.5294 3.33376 66.5774 4.27243C68.6254 5.16843 70.1827 6.4271 71.2494 8.04843C72.3587 9.66976 72.9134 11.5684 72.9134 13.7444C72.9134 15.2378 72.6361 16.5604 72.0814 17.7124C71.5267 18.8644 70.8227 19.8884 69.9694 20.7844C69.1161 21.6378 68.1774 22.4058 67.1534 23.0884C66.1721 23.7711 65.2121 24.3684 64.2734 24.8804C62.9507 25.5631 61.7561 26.2031 60.6894 26.8004C59.6227 27.3551 58.6841 27.9311 57.8734 28.5284C57.0627 29.0831 56.3374 29.6591 55.6974 30.2564C55.1001 30.8538 54.5667 31.5364 54.0974 32.3044H73.6174V40.0484H42.7694ZM112.622 21.2964C112.622 25.0511 111.897 28.4004 110.446 31.3444C109.038 34.2458 107.076 36.5284 104.558 38.1924C102.084 39.8564 99.2677 40.6884 96.1104 40.6884C92.9531 40.6884 90.1157 39.8564 87.5984 38.1924C85.1237 36.5284 83.1611 34.2458 81.7104 31.3444C80.3024 28.4004 79.5984 25.0511 79.5984 21.2964C79.5984 17.5418 80.3024 14.2138 81.7104 11.3124C83.1611 8.36843 85.1237 6.06443 87.5984 4.40043C90.1157 2.69376 92.9531 1.84043 96.1104 1.84043C99.2677 1.84043 102.084 2.69376 104.558 4.40043C107.076 6.06443 109.038 8.36843 110.446 11.3124C111.897 14.2138 112.622 17.5418 112.622 21.2964ZM103.982 21.2964C103.982 18.9924 103.641 16.9871 102.958 15.2804C102.318 13.5311 101.401 12.1658 100.206 11.1844C99.0117 10.2031 97.6464 9.71243 96.1104 9.71243C94.5317 9.71243 93.1451 10.2031 91.9504 11.1844C90.7557 12.1658 89.8171 13.5311 89.1344 15.2804C88.4944 16.9871 88.1744 18.9924 88.1744 21.2964C88.1744 23.6004 88.4944 25.6058 89.1344 27.3124C89.8171 29.0191 90.7557 30.3631 91.9504 31.3444C93.1451 32.3258 94.5317 32.8164 96.1104 32.8164C97.6464 32.8164 98.9904 32.3258 100.142 31.3444C101.337 30.3631 102.276 29.0191 102.958 27.3124C103.641 25.5631 103.982 23.5578 103.982 21.2964Z"/>
</mask>
<path d="M23.7429 48.1764H22.7429V49.1764H23.7429V48.1764ZM23.7429 38.6404H24.7429V37.6404H23.7429V38.6404ZM5.0549 38.6404H4.0549V39.6404H5.0549V38.6404ZM5.0549 31.0244L4.26604 30.4099L4.0549 30.6809V31.0244H5.0549ZM26.4949 3.50443V2.50443H26.0063L25.706 2.88985L26.4949 3.50443ZM32.3189 3.50443H33.3189V2.50443H32.3189V3.50443ZM32.3189 30.9604H31.3189V31.9604H32.3189V30.9604ZM37.9509 30.9604H38.9509V29.9604H37.9509V30.9604ZM37.9509 38.6404V39.6404H38.9509V38.6404H37.9509ZM32.3189 38.6404V37.6404H31.3189V38.6404H32.3189ZM32.3189 48.1764V49.1764H33.3189V48.1764H32.3189ZM13.6309 30.9604L12.8368 30.3526L11.6061 31.9604H13.6309V30.9604ZM24.7029 30.9604V31.9604H25.7029V30.9604H24.7029ZM24.7029 16.4964H25.7029V13.5449L23.9088 15.8886L24.7029 16.4964ZM24.7429 48.1764V38.6404H22.7429V48.1764H24.7429ZM23.7429 37.6404H5.0549V39.6404H23.7429V37.6404ZM6.0549 38.6404V31.0244H4.0549V38.6404H6.0549ZM5.84376 31.639L27.2838 4.119L25.706 2.88985L4.26604 30.4099L5.84376 31.639ZM26.4949 4.50443H32.3189V2.50443H26.4949V4.50443ZM31.3189 3.50443V30.9604H33.3189V3.50443H31.3189ZM32.3189 31.9604H37.9509V29.9604H32.3189V31.9604ZM36.9509 30.9604V38.6404H38.9509V30.9604H36.9509ZM37.9509 37.6404H32.3189V39.6404H37.9509V37.6404ZM31.3189 38.6404V48.1764H33.3189V38.6404H31.3189ZM32.3189 47.1764H23.7429V49.1764H32.3189V47.1764ZM13.6309 31.9604H24.7029V29.9604H13.6309V31.9604ZM25.7029 30.9604V16.4964H23.7029V30.9604H25.7029ZM23.9088 15.8886L12.8368 30.3526L14.425 31.5683L25.497 17.1043L23.9088 15.8886ZM42.7694 40.0484H41.7694V41.0484H42.7694V40.0484ZM43.2174 34.8644L44.199 35.0553L44.199 35.0553L43.2174 34.8644ZM44.7534 30.5764L43.8886 30.0743L43.8825 30.0849L43.8766 30.0956L44.7534 30.5764ZM47.8254 26.8644L48.4944 27.6077L48.4957 27.6065L47.8254 26.8644ZM52.8174 23.4084L52.3445 22.5272L52.3333 22.5334L52.8174 23.4084ZM57.4254 20.9764L57.884 21.8651L57.8952 21.8593L57.9062 21.8532L57.4254 20.9764ZM60.7534 18.9924L60.2165 18.1488L60.2076 18.1545L60.1987 18.1604L60.7534 18.9924ZM62.8654 17.2004L63.6517 17.8183L63.662 17.8052L63.6718 17.7918L62.8654 17.2004ZM62.8654 12.7204L62.0258 13.2637L62.0334 13.2754L62.0414 13.287L62.8654 12.7204ZM60.8814 10.9924L60.4342 11.8869L60.4342 11.8869L60.8814 10.9924ZM54.8014 10.7364L54.5267 9.77482L54.5141 9.7786L54.8014 10.7364ZM52.3694 11.8244L51.848 10.9711L51.837 10.9779L51.8262 10.9849L52.3694 11.8244ZM50.3214 13.4244L50.9763 14.1801L50.9903 14.1681L51.0037 14.1555L50.3214 13.4244ZM48.5934 15.2164L47.838 15.8717L48.6244 16.7784L49.3743 15.8411L48.5934 15.2164ZM43.1534 8.94443L42.4463 8.23732L41.7876 8.89598L42.398 9.59965L43.1534 8.94443ZM45.5214 7.02443L46.0925 7.84536L46.0994 7.84045L45.5214 7.02443ZM49.1054 5.04043L49.5062 5.95659L49.5127 5.95374L49.5192 5.95079L49.1054 5.04043ZM53.7134 3.50443L53.9383 4.47882L53.9471 4.47678L53.9559 4.47457L53.7134 3.50443ZM66.5774 4.27243L66.1607 5.1815L66.1686 5.18511L66.1766 5.18859L66.5774 4.27243ZM71.2494 8.04843L70.414 8.59805L70.419 8.60563L70.4241 8.61312L71.2494 8.04843ZM72.0814 17.7124L72.9824 18.1462L72.9824 18.1462L72.0814 17.7124ZM69.9694 20.7844L70.6765 21.4915L70.6851 21.4829L70.6935 21.4741L69.9694 20.7844ZM67.1534 23.0884L66.5987 22.2564L66.5905 22.2619L66.5823 22.2675L67.1534 23.0884ZM64.2734 24.8804L64.732 25.7691L64.7422 25.7638L64.7523 25.7583L64.2734 24.8804ZM60.6894 26.8004L61.1508 27.6876L61.1645 27.6805L61.178 27.6729L60.6894 26.8004ZM57.8734 28.5284L58.4381 29.3537L58.4525 29.3439L58.4666 29.3335L57.8734 28.5284ZM55.6974 30.2564L55.0151 29.5254L55.0025 29.5371L54.9903 29.5493L55.6974 30.2564ZM54.0974 32.3044L53.2441 31.783L52.3143 33.3044H54.0974V32.3044ZM73.6174 32.3044H74.6174V31.3044H73.6174V32.3044ZM73.6174 40.0484V41.0484H74.6174V40.0484H73.6174ZM43.7694 40.0484C43.7694 38.1787 43.915 36.5162 44.199 35.0553L42.2358 34.6736C41.9225 36.2847 41.7694 38.0782 41.7694 40.0484H43.7694ZM44.199 35.0553C44.4787 33.617 44.9564 32.2859 45.6302 31.0573L43.8766 30.0956C43.0997 31.5123 42.5534 33.0399 42.2358 34.6736L44.199 35.0553ZM45.6182 31.0786C46.3278 29.8565 47.2822 28.6987 48.4944 27.6077L47.1564 26.1211C45.8086 27.3342 44.7151 28.651 43.8886 30.0743L45.6182 31.0786ZM48.4957 27.6065C49.7481 26.4753 51.3451 25.3657 53.3015 24.2835L52.3333 22.5334C50.279 23.6698 48.548 24.8642 47.1551 26.1223L48.4957 27.6065ZM53.2902 24.2896C55.0363 23.3527 56.5674 22.5446 57.884 21.8651L56.9668 20.0878C55.6381 20.7736 54.0972 21.5869 52.3446 22.5273L53.2902 24.2896ZM57.9062 21.8532C59.245 21.1191 60.3808 20.4427 61.3081 19.8245L60.1987 18.1604C59.334 18.7368 58.2511 19.3831 56.9446 20.0996L57.9062 21.8532ZM61.2903 19.8361C62.2841 19.2037 63.0883 18.5354 63.6517 17.8183L62.0791 16.5826C61.7039 17.0601 61.1 17.5865 60.2165 18.1488L61.2903 19.8361ZM63.6718 17.7918C64.2698 16.9764 64.5694 16.0429 64.5694 15.0244H62.5694C62.5694 15.6273 62.3997 16.1445 62.059 16.6091L63.6718 17.7918ZM64.5694 15.0244C64.5694 13.9753 64.277 13.0085 63.6894 12.1539L62.0414 13.287C62.3925 13.7977 62.5694 14.3669 62.5694 15.0244H64.5694ZM63.705 12.1772C63.1287 11.2865 62.3246 10.596 61.3286 10.098L60.4342 11.8869C61.1449 12.2422 61.6635 12.7037 62.0258 13.2637L63.705 12.1772ZM61.3286 10.098C60.2973 9.58236 59.0661 9.35243 57.6814 9.35243V11.3524C58.8568 11.3524 59.7588 11.5492 60.4342 11.8869L61.3286 10.098ZM57.6814 9.35243C56.5736 9.35243 55.5204 9.491 54.5267 9.77491L55.0761 11.698C55.8744 11.4699 56.7412 11.3524 57.6814 11.3524V9.35243ZM54.5141 9.7786C53.5777 10.0595 52.6884 10.4575 51.848 10.9711L52.8909 12.6777C53.5864 12.2527 54.3185 11.9253 55.0888 11.6943L54.5141 9.7786ZM51.8262 10.9849C51.0507 11.4866 50.3216 12.0564 49.6391 12.6934L51.0037 14.1555C51.6012 13.5978 52.2374 13.1009 52.9127 12.664L51.8262 10.9849ZM49.6665 12.6687C48.9821 13.2618 48.3637 13.9028 47.8125 14.5917L49.3743 15.8411C49.8471 15.2501 50.3807 14.6964 50.9763 14.1801L49.6665 12.6687ZM49.3488 14.5612L43.9088 8.28921L42.398 9.59965L47.838 15.8717L49.3488 14.5612ZM43.8605 9.65154C44.4027 9.10933 45.1415 8.50688 46.0925 7.84533L44.9503 6.20352C43.9386 6.90732 43.0988 7.58486 42.4463 8.23732L43.8605 9.65154ZM46.0994 7.84045C47.0587 7.16094 48.192 6.53157 49.5062 5.95659L48.7046 4.12427C47.2882 4.74395 46.0321 5.43725 44.9434 6.20841L46.0994 7.84045ZM49.5192 5.95079C50.8606 5.34107 52.3326 4.84936 53.9383 4.47882L53.4885 2.53004C51.7662 2.9275 50.1662 3.45979 48.6916 4.13006L49.5192 5.95079ZM53.9559 4.47457C55.5764 4.06945 57.3078 3.86443 59.1534 3.86443V1.86443C57.159 1.86443 55.2637 2.08608 53.4709 2.53429L53.9559 4.47457ZM59.1534 3.86443C61.9507 3.86443 64.2754 4.31737 66.1607 5.1815L66.9941 3.36337C64.7834 2.35015 62.1587 1.86443 59.1534 1.86443V3.86443ZM66.1766 5.18859C68.0749 6.0191 69.4691 7.16181 70.414 8.59805L72.0848 7.49882C70.8964 5.69238 69.1759 4.31776 66.9782 3.35627L66.1766 5.18859ZM70.4241 8.61312C71.4075 10.0504 71.9134 11.7473 71.9134 13.7444H73.9134C73.9134 11.3895 73.31 9.28914 72.0747 7.48375L70.4241 8.61312ZM71.9134 13.7444C71.9134 15.1127 71.6598 16.2829 71.1804 17.2786L72.9824 18.1462C73.6123 16.838 73.9134 15.3629 73.9134 13.7444H71.9134ZM71.1804 17.2786C70.6695 18.3398 70.0243 19.2768 69.2453 20.0948L70.6935 21.4741C71.6212 20.5 72.384 19.3891 72.9824 18.1462L71.1804 17.2786ZM69.2623 20.0773C68.4564 20.8832 67.569 21.6095 66.5987 22.2564L67.7081 23.9205C68.7858 23.202 69.7757 22.3923 70.6765 21.4915L69.2623 20.0773ZM66.5823 22.2675C65.6273 22.9319 64.698 23.5097 63.7946 24.0025L64.7523 25.7583C65.7261 25.2271 66.7169 24.6103 67.7245 23.9093L66.5823 22.2675ZM63.8148 23.9918C62.4841 24.6786 61.2792 25.324 60.2008 25.9279L61.178 27.6729C62.2329 27.0822 63.4174 26.4476 64.732 25.7691L63.8148 23.9918ZM60.2281 25.9132C59.1239 26.4874 58.1397 27.0901 57.2802 27.7234L58.4666 29.3335C59.2284 28.7721 60.1216 28.2228 61.1508 27.6876L60.2281 25.9132ZM57.3087 27.7031C56.4615 28.2828 55.696 28.8899 55.0151 29.5254L56.3797 30.9875C56.9788 30.4283 57.664 29.8834 58.4381 29.3537L57.3087 27.7031ZM54.9903 29.5493C54.3335 30.2061 53.752 30.9519 53.2441 31.783L54.9507 32.8259C55.3815 32.1209 55.8666 31.5015 56.4045 30.9635L54.9903 29.5493ZM54.0974 33.3044H73.6174V31.3044H54.0974V33.3044ZM72.6174 32.3044V40.0484H74.6174V32.3044H72.6174ZM73.6174 39.0484H42.7694V41.0484H73.6174V39.0484ZM110.446 31.3444L109.549 30.9024L109.547 30.9078L110.446 31.3444ZM104.558 38.1924L104.007 37.3582L104 37.3626L104.558 38.1924ZM87.5984 38.1924L87.0404 39.0223L87.047 39.0267L87.5984 38.1924ZM81.7104 31.3444L80.8083 31.7759L80.8121 31.7838L80.816 31.7916L81.7104 31.3444ZM81.7104 11.3124L80.8134 10.8704L80.8107 10.8758L81.7104 11.3124ZM87.5984 4.40043L88.1564 5.23028L88.1596 5.22814L87.5984 4.40043ZM104.558 4.40043L103.991 5.22364L103.999 5.22922L104.007 5.23465L104.558 4.40043ZM110.446 11.3124L109.544 11.7439L109.548 11.7518L109.552 11.7596L110.446 11.3124ZM102.958 15.2804L102.019 15.624L102.024 15.638L102.03 15.6518L102.958 15.2804ZM91.9504 11.1844L91.3157 10.4117L91.9504 11.1844ZM89.1344 15.2804L88.2027 14.9169L88.1981 14.9293L89.1344 15.2804ZM89.1344 27.3124L88.1981 27.6636L88.2019 27.6737L88.2059 27.6838L89.1344 27.3124ZM91.9504 31.3444L91.3157 32.1172L91.9504 31.3444ZM100.142 31.3444L99.5077 30.5717L99.5007 30.5774L99.4939 30.5832L100.142 31.3444ZM102.958 27.3124L103.887 27.6838L103.89 27.676L102.958 27.3124ZM111.622 21.2964C111.622 24.92 110.923 28.1145 109.549 30.9024L111.343 31.7864C112.871 28.6864 113.622 25.1822 113.622 21.2964H111.622ZM109.547 30.9078C108.211 33.6593 106.364 35.7999 104.007 37.3582L105.11 39.0267C107.787 37.2569 109.865 34.8322 111.346 31.781L109.547 30.9078ZM104 37.3626C101.701 38.909 99.0813 39.6884 96.1104 39.6884V41.6884C99.4542 41.6884 102.467 40.8039 105.116 39.0223L104 37.3626ZM96.1104 39.6884C93.1396 39.6884 90.4958 38.9089 88.1498 37.3582L87.047 39.0267C89.7357 40.8039 92.7666 41.6884 96.1104 41.6884V39.6884ZM88.1564 37.3626C85.8374 35.8033 83.9852 33.658 82.6048 30.8972L80.816 31.7916C82.3369 34.8335 84.41 37.2536 87.0404 39.0223L88.1564 37.3626ZM82.6125 30.913C81.278 28.1226 80.5984 24.9242 80.5984 21.2964H78.5984C78.5984 25.178 79.3268 28.6783 80.8083 31.7759L82.6125 30.913ZM80.5984 21.2964C80.5984 17.6682 81.2781 14.4936 82.6101 11.749L80.8107 10.8758C79.3267 13.9339 78.5984 17.4153 78.5984 21.2964H80.5984ZM82.6074 11.7544C83.9889 8.95093 85.8409 6.78723 88.1564 5.23027L87.0404 3.57059C84.4065 5.34163 82.3333 7.78593 80.8134 10.8704L82.6074 11.7544ZM88.1596 5.22814C90.5047 3.6382 93.1451 2.84043 96.1104 2.84043V0.840431C92.7611 0.840431 89.7268 1.74933 87.0372 3.57272L88.1596 5.22814ZM96.1104 2.84043C99.0757 2.84043 101.692 3.63809 103.991 5.22364L105.126 3.57722C102.476 1.74944 99.4597 0.840431 96.1104 0.840431V2.84043ZM104.007 5.23465C106.361 6.79056 108.208 8.94965 109.544 11.7439L111.349 10.881C109.869 7.78721 107.791 5.3383 105.11 3.56621L104.007 5.23465ZM109.552 11.7596C110.923 14.5018 111.622 17.6725 111.622 21.2964H113.622C113.622 17.411 112.871 13.9257 111.341 10.8652L109.552 11.7596ZM104.982 21.2964C104.982 18.8963 104.627 16.7596 103.887 14.909L102.03 15.6518C102.655 17.2146 102.982 19.0886 102.982 21.2964H104.982ZM103.898 14.9368C103.209 13.0543 102.2 11.5275 100.841 10.4117L99.5717 11.9572C100.603 12.804 101.428 14.0079 102.019 15.624L103.898 14.9368ZM100.841 10.4117C99.4689 9.28447 97.8796 8.71243 96.1104 8.71243V10.7124C97.4132 10.7124 98.5546 11.1217 99.5717 11.9572L100.841 10.4117ZM96.1104 8.71243C94.3055 8.71243 92.6933 9.28008 91.3157 10.4117L92.5851 11.9572C93.5968 11.1261 94.7579 10.7124 96.1104 10.7124V8.71243ZM91.3157 10.4117C89.963 11.5228 88.9345 13.042 88.2028 14.9169L90.066 15.644C90.6997 14.0201 91.5485 12.8087 92.5851 11.9572L91.3157 10.4117ZM88.1981 14.9293C87.5065 16.7735 87.1744 18.9028 87.1744 21.2964H89.1744C89.1744 19.082 89.4823 17.2007 90.0707 15.6316L88.1981 14.9293ZM87.1744 21.2964C87.1744 23.69 87.5065 25.8193 88.1981 27.6636L90.0707 26.9613C89.4823 25.3922 89.1744 23.5108 89.1744 21.2964H87.1744ZM88.2059 27.6838C88.9393 29.5173 89.9683 31.0104 91.3157 32.1172L92.5851 30.5717C91.5432 29.7158 90.6948 28.5209 90.0629 26.941L88.2059 27.6838ZM91.3157 32.1172C92.6933 33.2488 94.3055 33.8164 96.1104 33.8164V31.8164C94.7579 31.8164 93.5968 31.4027 92.5851 30.5717L91.3157 32.1172ZM96.1104 33.8164C97.8802 33.8164 99.455 33.2436 100.791 32.1057L99.4939 30.5832C98.5258 31.4079 97.4127 31.8164 96.1104 31.8164V33.8164ZM100.777 32.1172C102.125 31.0104 103.153 29.5173 103.887 27.6838L102.03 26.941C101.398 28.5209 100.55 29.7158 99.5077 30.5717L100.777 32.1172ZM103.89 27.676C104.626 25.7898 104.982 23.6574 104.982 21.2964H102.982C102.982 23.4581 102.656 25.3364 102.027 26.9489L103.89 27.676Z" fill="white" mask="url(#path-1-outside-1_135_961)"/>
</g>
<defs>
<filter id="filter0_d_135_961" x="0.0546875" y="0.840424" width="117.568" height="56.336" filterUnits="userSpaceOnUse" color-interpolation-filters="sRGB">
<feFlood flood-opacity="0" result="BackgroundImageFix"/>
<feColorMatrix in="SourceAlpha" type="matrix" values="0 0 0 0 0 0 0 0 0 0 0 0 0 0 0 0 0 0 127 0" result="hardAlpha"/>
<feOffset dy="4"/>
<feGaussianBlur stdDeviation="2"/>
<feComposite in2="hardAlpha" operator="out"/>
<feColorMatrix type="matrix" values="0 0 0 0 0 0 0 0 0 0 0 0 0 0 0 0 0 0 0.25 0"/>
<feBlend mode="normal" in2="BackgroundImageFix" result="effect1_dropShadow_135_961"/>
<feBlend mode="normal" in="SourceGraphic" in2="effect1_dropShadow_135_961" result="shape"/>
</filter>
</defs>
</svg>
